:SAMPLES-PER-SECOND 24
:FULLY-SPECIFIED
:DEGREES
377
root  2.46988 41.2893 35.5044 14.0529 -53.5538 -6.70062
RightUpLeg  -8.30371 -0.737186 -7.11653
RightLeg  14.6449 -1.19008 -1.45249
RightFoot  -0.257359 -0.924201 9.47797
RightToes  -2.08645e-008 3.77894e-005 6.81332e-007
Spine  1.91702 1.72788 5.02115
Spine1  4.47745 1.94961 -1.39379
HEad  -23.5817 34.4001 -10.0294
LeftShoulder1  6.72796 -12.4546 -36.1172
LeftArm  0.782357 20.927 -29.3185
LeftForeArm  167.74 -64.3535 -159.296
LeftHand  -0.532096 -0.955921 9.8711
RightShoulder  4.12683 6.92114 33.6977
RightArm  18.1137 -25.8425 33.9729
RightForeArm  161.489 71.6406 149.694
RightHand  -0.701545 9.43356 -5.88608
LeftUpLeg  -20.1503 6.0914 8.68816
LeftLeg  16.4001 -14.0859 -4.31832
LeftFoot  7.00097 2.87194 -17.6581
LeftToes  1.24767e-006 1.47042e-008 1.32732e-009
378
root  2.57351 41.9491 35.43 14.1981 -53.2757 -7.20844
RightUpLeg  -6.99113 -3.48631 -6.20784
RightLeg  16.1185 -3.75815 -1.80898
RightFoot  0.419054 -1.05326 10.2291
RightToes  -2.08645e-008 3.77894e-005 6.81332e-007
Spine  1.681 1.26952 5.72565
Spine1  3.75529 1.49784 -1.69622
HEad  -22.0339 35.0893 -8.87283
LeftShoulder1  6.35661 -12.094 -34.7392
LeftArm  2.90913 18.3253 -27.4564
LeftForeArm  168.691 -62.7101 -160.756
LeftHand  -0.473443 -0.967812 8.78233
RightShoulder  4.09227 6.94318 33.2848
RightArm  18.4806 -25.9201 33.5937
RightForeArm  163.682 70.6623 151.571
RightHand  -0.437894 9.69496 -3.76135
LeftUpLeg  -18.6283 7.92632 10.2343
LeftLeg  12.3958 -13.6166 -3.45793
LeftFoot  9.86362 4.82861 -25.7312
LeftToes  1.24767e-006 1.47042e-008 1.32732e-009
379
root  2.77212 42.0151 35.3084 13.6581 -53.2439 -7.13544
RightUpLeg  -6.58947 -6.04963 -6.01562
RightLeg  21.0597 -4.32145 -2.01275
RightFoot  1.46234 -1.16584 10.4574
RightToes  -2.08645e-008 3.77894e-005 6.81332e-007
Spine  2.05736 1.00095 5.83425
Spine1  3.2155 1.33916 -2.16797
HEad  -22.0322 35.1424 -8.49985
LeftShoulder1  5.91056 -11.6078 -33.1144
LeftArm  4.66144 14.5808 -27.0909
LeftForeArm  168.456 -62.3526 -161.01
LeftHand  -0.455767 -1.01051 8.40744
RightShoulder  3.81432 6.70585 31.4649
RightArm  19.397 -24.7647 33.522
RightForeArm  161.224 71.2316 150.328
RightHand  -0.508258 8.62997 -4.59738
LeftUpLeg  -18.6397 4.50923 11.5797
LeftLeg  12.7634 -4.27064 -0.682817
LeftFoot  9.33513 3.48633 -19.2672
LeftToes  1.24767e-006 1.47042e-008 1.32732e-009
380
root  2.97891 41.4387 35.1453 12.9476 -53.348 -6.59375
RightUpLeg  -6.84766 -7.75471 -6.08139
RightLeg  26.3922 -2.71371 -1.68972
RightFoot  2.00918 -1.22433 10.4937
RightToes  -2.08645e-008 3.77894e-005 6.81332e-007
Spine  2.82105 1.12897 4.69279
Spine1  2.40647 1.37299 -1.42247
HEad  -23.6391 34.4207 -8.64243
LeftShoulder1  5.59927 -11.2286 -32.0131
LeftArm  4.82088 10.2819 -27.3704
LeftForeArm  168.317 -63.3124 -160.238
LeftHand  -0.412128 -1.46869 7.14627
RightShoulder  3.62472 6.52798 30.2266
RightArm  19.2866 -23.7822 32.263
RightForeArm  159.006 71.9979 148.717
RightHand  -0.572748 7.89887 -5.36015
LeftUpLeg  -20.3592 -2.95084 13.566
LeftLeg  17.4376 3.24833 1.55846
LeftFoot  8.63058 1.73101 -10.0283
LeftToes  1.24767e-006 1.47042e-008 1.32732e-009
381
root  3.17536 40.1277 34.9802 11.936 -53.5393 -5.47076
RightUpLeg  -5.97734 -7.34699 -6.67522
RightLeg  29.2626 -2.00489 -1.45458
RightFoot  -5.14906 -0.691346 12.2524
RightToes  -2.08645e-008 3.77894e-005 6.81332e-007
Spine  4.21599 1.54368 3.81562
Spine1  0.832453 1.84233 -1.37144
HEad  -25.7513 32.9763 -8.64427
LeftShoulder1  5.70089 -11.3468 -32.3947
LeftArm  3.9544 5.37794 -26.2645
LeftForeArm  166.059 -64.9047 -158.632
LeftHand  -0.401776 -1.76203 6.70103
RightShoulder  3.73026 6.64855 30.8411
RightArm  17.2672 -23.923 29.7266
RightForeArm  157.433 72.3996 147.763
RightHand  -0.556873 8.47318 -5.02305
LeftUpLeg  -22.8235 -6.93155 14.8916
LeftLeg  24.1182 1.72348 1.14499
LeftFoot  3.05884 1.48668 -11.9761
LeftToes  1.24767e-006 1.47042e-008 1.32732e-009
382
root  3.43273 38.4329 34.8311 11.3166 -54.1869 -4.26843
RightUpLeg  -5.50039 -6.14599 -7.56338
RightLeg  30.7062 -2.30607 -1.72006
RightFoot  -17.553 0.609252 13.3766
RightToes  -2.08645e-008 3.77894e-005 6.81332e-007
Spine  4.95586 1.97454 4.2008
Spine1  0.329276 2.67408 -3.3909
HEad  -28.4394 31.6847 -9.3622
LeftShoulder1  6.12086 -11.8083 -33.9705
LeftArm  2.41673 -0.120476 -24.4898
LeftForeArm  162.644 -67.1728 -155.953
LeftHand  -0.498398 -1.50435 8.56015
RightShoulder  3.7983 6.68647 31.3802
RightArm  14.6075 -22.8386 28.5295
RightForeArm  151.853 74.3345 142.706
RightHand  -0.881028 7.70034 -8.15171
LeftUpLeg  -25.9696 -5.94181 14.8041
LeftLeg  31.1353 -1.00033 -0.304168
LeftFoot  -7.68005 0.548606 -15.651
LeftToes  1.24767e-006 1.47042e-008 1.32732e-009
383
root  3.73324 37.0838 34.7038 11.1874 -55.1136 -3.50153
RightUpLeg  -7.30636 -4.17819 -7.85072
RightLeg  33.8287 -4.09351 -3.21373
RightFoot  -26.2034 1.35887 11.7337
RightToes  -2.08645e-008 3.77894e-005 6.81332e-007
Spine  4.70424 2.30494 4.08663
Spine1  1.868 3.21592 -4.24007
HEad  -33.4708 30.8717 -11.9785
LeftShoulder1  6.66462 -12.4035 -35.8586
LeftArm  -0.362457 -3.31339 -23.961
LeftForeArm  161.112 -70.1336 -152.01
LeftHand  -0.605555 -1.41513 10.4926
RightShoulder  3.746 6.56402 31.3144
RightArm  11.9885 -21.0385 28.5963
RightForeArm  144.798 76.7687 134.161
RightHand  -0.836473 8.3098 -7.43189
LeftUpLeg  -29.4833 -4.92005 14.168
LeftLeg  37.4839 -0.0607521 0.342952
LeftFoot  -15.613 -0.453142 -14.5474
LeftToes  1.24767e-006 1.47042e-008 1.32732e-009
384
root  3.90645 36.6609 34.6926 10.6602 -57.165 -2.77667
RightUpLeg  -8.33589 -0.34539 -7.93617
RightLeg  34.8518 -7.1534 -5.54013
RightFoot  -28.6918 1.51178 11.1477
RightToes  -2.08645e-008 3.77894e-005 6.81332e-007
Spine  4.30051 2.61991 2.35531
Spine1  3.5354 3.29388 -3.04577
HEad  -38.7198 31.1181 -15.0599
LeftShoulder1  7.20028 -12.9927 -37.5574
LeftArm  -3.16813 0.79817 -24.4199
LeftForeArm  161.741 -71.655 -149.751
LeftHand  -0.640174 -1.40513 11.0986
RightShoulder  3.80563 6.56778 31.8967
RightArm  10.3073 -22.3359 28.9003
RightForeArm  144.437 77.1592 132.593
RightHand  -1.10911 8.70928 -9.481
LeftUpLeg  -30.3656 -5.24895 13.4087
LeftLeg  39.9586 2.33115 2.47549
LeftFoot  -17.1419 -0.612795 -14.0313
LeftToes  1.24767e-006 1.47042e-008 1.32732e-009
385
root  3.8117 37.5066 35.0039 11.381 -62.2328 -3.23474
RightUpLeg  -6.36863 4.94774 -8.54283
RightLeg  27.4686 -8.52669 -4.87438
RightFoot  -24.1189 1.13088 11.6341
RightToes  -2.08645e-008 3.77894e-005 6.81332e-007
Spine  2.79008 3.01815 2.49922
Spine1  3.71269 3.78885 -3.70856
HEad  -38.7615 34.3746 -15.9488
LeftShoulder1  7.34355 -13.1244 -38.058
LeftArm  -4.36954 13.2138 -25.1227
LeftForeArm  163.081 -70.5646 -151.651
LeftHand  -0.612297 -1.00468 11.2557
RightShoulder  3.92704 6.6595 32.7541
RightArm  12.0429 -27.4309 29.6581
RightForeArm  150.126 76.1702 137.3
RightHand  -0.937784 8.48816 -8.17732
LeftUpLeg  -26.0726 -2.4777 12.3642
LeftLeg  34.6676 4.42544 3.6355
LeftFoot  -14.222 -0.283481 -14.6297
LeftToes  1.24767e-006 1.47042e-008 1.32732e-009
386
root  3.48927 39.1779 35.5074 16.5966 -69.7828 -7.27496
RightUpLeg  -4.64722 6.18167 -9.11681
RightLeg  15.464 -3.60255 -2.29348
RightFoot  -12.0622 -0.0190479 9.99889
RightToes  -2.08645e-008 3.77894e-005 6.81332e-007
Spine  -0.46312 3.78414 5.74867
Spine1  3.00499 4.97315 -6.48611
HEad  -34.5703 40.5592 -15.1687
LeftShoulder1  6.91821 -12.6242 -36.8324
LeftArm  -4.1782 28.9833 -25.9891
LeftForeArm  164.096 -67.9937 -155.189
LeftHand  -0.553801 -1.05899 10.1122
RightShoulder  3.9866 6.74458 33.0146
RightArm  17.0253 -33.19 29.1751
RightForeArm  156.227 75.0228 141.792
RightHand  -0.615911 8.86318 -5.38882
LeftUpLeg  -19.6531 5.03287 11.6595
LeftLeg  24.1769 5.68393 3.12049
LeftFoot  -6.71194 0.63195 -14.5794
LeftToes  1.24767e-006 1.47042e-008 1.32732e-009
387
root  3.2323 40.8355 35.7255 26.0455 -76.7614 -15.2709
RightUpLeg  -5.16776 -3.50908 -8.17654
RightLeg  8.12635 6.07953 -2.44253
RightFoot  -0.935149 -0.760731 8.2045
RightToes  -2.08645e-008 3.77894e-005 6.81332e-007
Spine  -3.18051 4.75131 8.19442
Spine1  2.93128 6.09475 -8.33612
HEad  -33.1925 46.4044 -15.9612
LeftShoulder1  6.51081 -12.1935 -35.4533
LeftArm  -2.15092 42.0118 -24.9906
LeftForeArm  165.23 -64.9413 -158.507
LeftHand  -0.440794 -1.51992 7.57643
RightShoulder  4.10525 6.96278 33.3341
RightArm  22.5264 -36.9676 25.7016
RightForeArm  160.876 73.1872 146.766
RightHand  -0.624154 9.18332 -5.34835
LeftUpLeg  -16.051 13.3368 11.3303
LeftLeg  16.3922 7.30327 2.55392
LeftFoot  5.29265 2.19539 -15.155
LeftToes  1.24767e-006 1.47042e-008 1.32732e-009
388
root  3.3343 41.9627 35.6634 35.5552 -80.7409 -24.902
RightUpLeg  -5.89234 -4.93596 -7.42197
RightLeg  10.704 -4.07551 -2.48054
RightFoot  1.44266 -0.743871 6.6677
RightToes  -2.08645e-008 3.77894e-005 6.81332e-007
Spine  -2.08905 4.97923 9.79366
Spine1  3.15162 6.63495 -9.49017
HEad  -36.2733 48.8772 -19.0109
LeftShoulder1  6.47753 -12.3208 -34.9156
LeftArm  3.78401 48.6396 -19.8687
LeftForeArm  166.485 -62.912 -160.384
LeftHand  -0.36809 -2.17016 5.85377
RightShoulder  4.24678 7.18667 33.8351
RightArm  25.3583 -39.0259 21.7386
RightForeArm  161.343 71.8393 149.352
RightHand  -0.636713 8.7345 -5.59883
LeftUpLeg  -15.5216 17.3258 11.2491
LeftLeg  14.5033 10.6048 2.80249
LeftFoot  14.7618 3.36928 -14.895
LeftToes  1.24767e-006 1.47042e-008 1.32732e-009
389
root  3.72076 42.3738 35.6103 40.1845 -82.367 -31.0584
RightUpLeg  -6.47193 -10.6465 -6.70994
RightLeg  20.1935 -11.2185 -4.78901
RightFoot  0.875874 -0.452868 4.28161
RightToes  -2.08645e-008 3.77894e-005 6.81332e-007
Spine  2.38332 4.41884 12.0235
Spine1  2.61709 6.81801 -11.3604
HEad  -38.7399 48.1276 -21.2089
LeftShoulder1  6.42336 -12.475 -34.1899
LeftArm  12.5718 49.5462 -12.9694
LeftForeArm  168.182 -62.4894 -160.878
LeftHand  -0.311087 -2.81556 4.62879
RightShoulder  4.17626 7.15007 33.3107
RightArm  25.2102 -41.6262 19.7622
RightForeArm  159.386 71.8948 148.951
RightHand  -0.70591 8.12368 -6.42028
LeftUpLeg  -16.0359 17.0381 10.4507
LeftLeg  15.0477 8.7552 2.71641
LeftFoot  14.2777 3.14308 -14.1021
LeftToes  1.24767e-006 1.47042e-008 1.32732e-009
390
root  4.16569 42.1407 35.5495 44.7059 -84.3002 -36.0291
RightUpLeg  -9.1428 -15.6429 -6.64408
RightLeg  29.8761 -7.82618 -5.0722
RightFoot  3.47339 -0.428151 3.47435
RightToes  -2.08645e-008 3.77894e-005 6.81332e-007
Spine  6.61108 4.01264 12.8714
Spine1  1.35341 7.00464 -12.8867
HEad  -40.075 46.4682 -22.0514
LeftShoulder1  6.31977 -12.4747 -33.5476
LeftArm  19.5754 48.9662 -7.51321
LeftForeArm  169.115 -62.4032 -161.034
LeftHand  -0.227859 -3.3216 3.28313
RightShoulder  4.00579 7.00234 32.2391
RightArm  25.6316 -44.027 17.4835
RightForeArm  157.426 72.2893 147.945
RightHand  -0.816285 8.0558 -7.39676
LeftUpLeg  -17.9513 11.8329 9.58576
LeftLeg  14.9907 1.6166 0.701645
LeftFoot  6.26074 2.51145 -16.3747
LeftToes  1.24767e-006 1.47042e-008 1.32732e-009
391
root  4.64453 41.2508 35.4677 77.8366 -87.092 -67.7549
RightUpLeg  -14.5019 -16.2758 -6.49067
RightLeg  36.994 -2.11901 -1.9977
RightFoot  4.18202 -0.891284 6.8053
RightToes  -2.08645e-008 3.77894e-005 6.81332e-007
Spine  10.3756 3.94222 12.7049
Spine1  -0.978415 7.26742 -14.7736
HEad  -42.5265 43.8052 -22.0545
LeftShoulder1  6.33453 -12.5246 -33.5166
LeftArm  21.8669 49.3774 -4.39256
LeftForeArm  168.326 -62.3263 -161.017
LeftHand  -0.228875 -3.56423 3.22343
RightShoulder  4.0674 7.07866 32.5448
RightArm  27.0498 -43.8785 13.9115
RightForeArm  154.591 73.3535 145.386
RightHand  -0.803205 7.69203 -7.46679
LeftUpLeg  -22.4588 4.08956 10.1141
LeftLeg  15.9132 -7.86606 -2.23556
LeftFoot  -2.80695 1.55741 -20.4147
LeftToes  1.24767e-006 1.47042e-008 1.32732e-009
